<?xml version="1.0" ?><!DOCTYPE svg  PUBLIC '-//W3C//DTD SVG 1.1//EN'  'http://www.w3.org/Graphics/SVG/1.1/DTD/svg11.dtd'><svg enable-background="new 0 0 512 512" height="512px" id="Dental_x5F_appointment" version="1.1" viewBox="0 0 512 512" width="512px" xml:space="preserve" xmlns="http://www.w3.org/2000/svg" xmlns:xlink="http://www.w3.org/1999/xlink"><g><path d="M373,269.75c-44.391,0-80.5,36.109-80.5,80.5s36.109,80.5,80.5,80.5s80.5-36.109,80.5-80.5S417.391,269.75,373,269.75z    M373,420.75c-38.87,0-70.5-31.63-70.5-70.5s31.63-70.5,70.5-70.5s70.5,31.63,70.5,70.5S411.87,420.75,373,420.75z"/><path d="M406.04,308.1c-3.37-3.18-7.55-4.84-11.95-4.84c-1.77,0-3.57,0.27-5.369,0.811l-8.011,2.43c-5.11,1.55-10.31,1.55-15.431,0   l-8-2.43c-6.27-1.9-12.59-0.43-17.319,4.029c-6.63,6.24-9.239,17.26-6.649,28.08l12.299,51.41c1.33,5.6,6.351,9.66,11.99,9.66   c4.131-0.02,7.621-3.29,7.94-7.439c0.979-12.781,4.87-24.73,7.46-28.15c2.59,3.42,6.48,15.359,7.46,28.15   c0.319,4.149,3.81,7.42,8,7.439c5.58,0,10.601-4.061,11.931-9.66l12.299-51.41C415.279,325.359,412.67,314.34,406.04,308.1z    M402.96,333.85l-12.29,51.41c-0.1,0.4-0.279,0.75-0.52,1.051c-1.01-8.721-5.09-35.281-17.15-35.281s-16.141,26.561-17.15,35.281   c-0.24-0.291-0.42-0.65-0.52-1.051l-12.29-51.41c-2.011-8.399,0.45-15.33,3.78-18.47c1.5-1.42,3.199-2.13,5.07-2.13   c0.799,0,1.629,0.13,2.489,0.391l8,2.43c7.05,2.14,14.19,2.14,21.24,0l8-2.43c2.87-0.871,5.42-0.281,7.56,1.739   C402.51,318.52,404.971,325.45,402.96,333.85z"/><g><path d="M255.5,204c-14.89,0-27,12.11-27,27s12.11,27,27,27c14.891,0,27-12.11,27-27S270.391,204,255.5,204z M255.5,248    c-9.37,0-17-7.63-17-17s7.63-17,17-17s17,7.63,17,17S264.87,248,255.5,248z"/><path d="M336.25,204c-14.891,0-27,12.11-27,27s12.109,27,27,27s27-12.11,27-27S351.141,204,336.25,204z M336.25,248    c-9.37,0-17-7.63-17-17s7.63-17,17-17s17,7.63,17,17S345.62,248,336.25,248z"/><path d="M417,204c-14.891,0-27,12.11-27,27s12.109,27,27,27s27-12.11,27-27S431.891,204,417,204z M417,248c-9.37,0-17-7.63-17-17    s7.63-17,17-17s17,7.63,17,17S426.37,248,417,248z"/><path d="M174.75,283c-14.89,0-27,12.109-27,27s12.11,27,27,27s27-12.109,27-27S189.64,283,174.75,283z M174.75,327    c-9.37,0-17-7.63-17-17s7.63-17,17-17s17,7.63,17,17S184.12,327,174.75,327z"/><path d="M94,283c-14.89,0-27,12.109-27,27s12.11,27,27,27s27-12.109,27-27S108.89,283,94,283z M94,327c-9.37,0-17-7.63-17-17    s7.63-17,17-17s17,7.63,17,17S103.37,327,94,327z"/><path d="M255.5,283c-14.89,0-27,12.109-27,27s12.11,27,27,27c14.891,0,27-12.109,27-27S270.391,283,255.5,283z M255.5,327    c-9.37,0-17-7.63-17-17s7.63-17,17-17s17,7.63,17,17S264.87,327,255.5,327z"/><path d="M174.75,362c-14.89,0-27,12.109-27,27s12.11,27,27,27s27-12.109,27-27S189.64,362,174.75,362z M174.75,406    c-9.37,0-17-7.63-17-17s7.63-17,17-17s17,7.63,17,17S184.12,406,174.75,406z"/><path d="M94,362c-14.89,0-27,12.109-27,27s12.11,27,27,27s27-12.109,27-27S108.89,362,94,362z M94,406c-9.37,0-17-7.63-17-17    s7.63-17,17-17s17,7.63,17,17S103.37,406,94,406z"/><path d="M255.5,362c-14.89,0-27,12.109-27,27s12.11,27,27,27c14.891,0,27-12.109,27-27S270.391,362,255.5,362z M255.5,406    c-9.37,0-17-7.63-17-17s7.63-17,17-17s17,7.63,17,17S264.87,406,255.5,406z"/></g><g><path d="M406.194,471H376c-2.762,0-5-2.238-5-5s2.238-5,5-5h30.194c2.761,0,5,2.238,5,5S408.955,471,406.194,471z"/><path d="M473.52,76H432.5V55.02c0-7.73-6.29-14.02-14.02-14.02h-1.961c-7.729,0-14.02,6.29-14.02,14.02V76h-52V55.02    c0-7.73-6.29-14.02-14.02-14.02h-1.961c-7.729,0-14.02,6.29-14.02,14.02V76h-135V55.02c0-7.73-6.29-14.02-14.02-14.02h-1.96    c-7.73,0-14.02,6.29-14.02,14.02V76h-46V55.02c0-7.73-6.29-14.02-14.02-14.02h-1.96c-7.73,0-14.02,6.29-14.02,14.02V76H38.48    C25.53,76,15,86.53,15,99.48v348.04C15,460.47,25.53,471,38.48,471H346c2.76,0,5-2.24,5-5s-2.24-5-5-5H38.48    C31.05,461,25,454.95,25,447.52V179h462v268.52c0,7.431-6.05,13.48-13.48,13.48h-37.33c-2.76,0-5,2.24-5,5s2.24,5,5,5h37.33    c12.951,0,23.48-10.53,23.48-23.48V99.48C497,86.53,486.471,76,473.52,76z M412.5,55.02c0-2.22,1.8-4.02,4.02-4.02h1.961    c2.22,0,4.02,1.8,4.02,4.02v51.96c0,2.22-1.8,4.02-4.02,4.02h-1.961c-2.22,0-4.02-1.8-4.02-4.02V55.02z M330.5,55.02    c0-2.22,1.8-4.02,4.02-4.02h1.961c2.22,0,4.02,1.8,4.02,4.02v51.96c0,2.22-1.8,4.02-4.02,4.02h-1.961c-2.22,0-4.02-1.8-4.02-4.02    V55.02z M165.5,55.02c0-2.22,1.8-4.02,4.02-4.02h1.96c2.22,0,4.02,1.8,4.02,4.02v51.96c0,2.22-1.8,4.02-4.02,4.02h-1.96    c-2.22,0-4.02-1.8-4.02-4.02V55.02z M89.5,55.02c0-2.22,1.8-4.02,4.02-4.02h1.96c2.22,0,4.02,1.8,4.02,4.02v51.96    c0,2.22-1.8,4.02-4.02,4.02h-1.96c-2.22,0-4.02-1.8-4.02-4.02V55.02z M25,169V99.48C25,92.05,31.05,86,38.48,86H79.5v20.98    c0,7.73,6.29,14.02,14.02,14.02h1.96c7.73,0,14.02-6.29,14.02-14.02V86h46v20.98c0,7.73,6.29,14.02,14.02,14.02h1.96    c7.73,0,14.02-6.29,14.02-14.02V86h135v20.98c0,7.73,6.29,14.02,14.02,14.02h1.961c7.729,0,14.02-6.29,14.02-14.02V86h52v20.98    c0,7.73,6.29,14.02,14.02,14.02h1.961c7.729,0,14.02-6.29,14.02-14.02V86h41.02C480.95,86,487,92.05,487,99.48V169H25z"/></g></g></svg>