<?xml version="1.0" ?><!DOCTYPE svg  PUBLIC '-//W3C//DTD SVG 1.1//EN'  'http://www.w3.org/Graphics/SVG/1.1/DTD/svg11.dtd'><svg enable-background="new 0 0 512 512" width="55" height="70" fill="#ffffff" id="Dental_x5F_checkup" version="1.1" viewBox="0 0 512 512"  xml:space="preserve" xmlns="http://www.w3.org/2000/svg" xmlns:xlink="http://www.w3.org/1999/xlink"><g><path stroke="#fff" stroke-width="10" d="M408.811,58.365h-67.17c-1.17-15.64-14.271-27.99-30.201-27.99h-36.08c-2.229-8.62-10.069-14.99-19.359-14.99   s-17.13,6.37-19.36,14.99h-36.08c-15.93,0-29.03,12.35-30.2,27.99h-67.17c-17.12,0-31.05,13.93-31.05,31.05v376.14   c0,17.12,13.93,31.061,31.05,31.061h305.621c17.119,0,31.049-13.94,31.049-31.061V89.415   C439.859,72.295,425.93,58.365,408.811,58.365z M256,25.385c3.689,0,6.91,2.01,8.641,4.99c0.859,1.47,1.35,3.18,1.35,5   s-0.49,3.53-1.35,5c-1.73,2.98-4.951,4.99-8.641,4.99c-3.69,0-6.91-2.01-8.64-4.99c-0.86-1.47-1.35-3.18-1.35-5s0.49-3.53,1.35-5   C249.09,27.395,252.31,25.385,256,25.385z M200.56,40.375h36.08c2.23,8.61,10.07,14.99,19.36,14.99s17.13-6.38,19.359-14.99h36.08   c10.42,0,19.021,7.87,20.16,17.99c0.101,0.76,0.141,1.53,0.141,2.31v7.69v20.65v10v2.9H180.26v-2.9v-10v-20.65v-7.69   c0-0.78,0.04-1.55,0.14-2.31C181.54,48.245,190.14,40.375,200.56,40.375z M399.2,367.915H316.18c-2.76,0-5,2.24-5,5v83.03H112.8   V99.015h57.46v7.9c0,2.76,2.23,5,5,5h161.48c2.77,0,5-2.24,5-5v-7.9h57.46V367.915z M392.13,377.915l-70.95,70.95v-70.95H392.13z    M429.859,465.555c0,11.61-9.439,21.061-21.049,21.061H103.19c-11.61,0-21.05-9.45-21.05-21.061V89.415   c0-11.61,9.44-21.05,21.05-21.05h67.07v20.65H107.8c-2.77,0-5,2.24-5,5v366.93c0,2.76,2.23,5,5,5h208.37h0.01   c0.16,0,0.32-0.011,0.49-0.021c0.32-0.03,0.641-0.1,0.96-0.2c0.46-0.129,0.91-0.34,1.32-0.62c0.271-0.17,0.53-0.38,0.76-0.62v-0.01   l88.021-88.02h0.01c0.119-0.12,0.23-0.24,0.33-0.36v-0.01c0.209-0.26,0.4-0.53,0.55-0.819c0.149-0.291,0.271-0.601,0.37-0.91   c0.039-0.15,0.08-0.301,0.109-0.45c0.03-0.14,0.051-0.271,0.07-0.41c0.02-0.2,0.03-0.39,0.03-0.58v-278.9c0-2.76-2.229-5-5-5   h-62.46v-20.65h67.07c11.609,0,21.049,9.44,21.049,21.05V465.555z"/><path d="M226.82,214.775c1.39,5.79,6.57,9.99,12.39,9.99c4.22-0.02,7.78-3.36,8.11-7.6c1.07-13.98,5.38-26.88,8.15-30.15   c2.77,3.27,7.09,16.17,8.16,30.15c0.32,4.24,3.88,7.58,8.16,7.6c5.76,0,10.95-4.2,12.33-9.99l12.979-54.271   c2.711-11.32-0.02-22.85-6.939-29.37c-4.92-4.64-11.49-6.17-18.02-4.19l-8.44,2.56c-5.46,1.66-11,1.66-16.45,0l-8.45-2.56   c-6.53-1.98-13.1-0.45-18.02,4.19c-6.92,6.521-9.64,18.05-6.94,29.37L226.82,214.775z M227.64,138.405   c1.64-1.541,3.49-2.32,5.54-2.32c0.87,0,1.78,0.15,2.72,0.43l8.44,2.56c7.39,2.24,14.881,2.24,22.26,0l8.44-2.56   c3.14-0.95,5.92-0.31,8.26,1.89c3.58,3.37,6.22,10.79,4.07,19.77l-12.979,54.28c-0.16,0.69-0.551,1.26-1.021,1.66   c-0.94-8.48-5.101-37.58-17.9-37.58c-12.79,0-16.96,29.1-17.9,37.58c-0.47-0.4-0.85-0.97-1.02-1.66l-12.98-54.28   C221.42,149.195,224.07,141.775,227.64,138.405z"/><path d="M180.017,253.566c-2.232-1.623-5.36-1.13-6.984,1.103l-19.503,26.816l-8.16-8.549c-1.906-1.997-5.071-2.071-7.069-0.164   c-1.997,1.907-2.071,5.071-0.164,7.068l12.297,12.883c0.947,0.992,2.255,1.548,3.616,1.548c0.111,0,0.222-0.004,0.333-0.012   c1.479-0.099,2.839-0.849,3.71-2.048l23.026-31.661C182.744,258.318,182.25,255.19,180.017,253.566z"/><path d="M180.017,318.994c-2.232-1.624-5.36-1.129-6.984,1.104l-19.503,26.815l-8.16-8.548c-1.906-1.996-5.071-2.072-7.069-0.165   c-1.997,1.907-2.071,5.071-0.164,7.069l12.297,12.883c0.947,0.991,2.255,1.547,3.616,1.547c0.111,0,0.222-0.004,0.333-0.012   c1.479-0.098,2.839-0.848,3.71-2.047l23.026-31.662C182.744,323.745,182.25,320.619,180.017,318.994z"/><path d="M180.017,384.422c-2.232-1.623-5.36-1.131-6.984,1.103l-19.503,26.815l-8.16-8.548c-1.906-1.997-5.071-2.071-7.069-0.165   c-1.997,1.907-2.071,5.072-0.164,7.069l12.297,12.883c0.947,0.991,2.255,1.547,3.616,1.547c0.111,0,0.222-0.004,0.333-0.011   c1.479-0.099,2.839-0.849,3.71-2.048l23.026-31.661C182.744,389.173,182.25,386.046,180.017,384.422z"/><path d="M197.161,264.816c0,2.762,2.239,5,5,5h170.368c2.761,0,5-2.238,5-5c0-2.761-2.239-5-5-5H202.161   C199.4,259.816,197.161,262.056,197.161,264.816z"/><path d="M372.529,275.3H202.161c-2.761,0-5,2.239-5,5s2.239,5,5,5h170.368c2.761,0,5-2.239,5-5S375.29,275.3,372.529,275.3z"/><path d="M372.529,327.973H202.161c-2.761,0-5,2.239-5,5c0,2.762,2.239,5,5,5h170.368c2.761,0,5-2.238,5-5   C377.529,330.212,375.29,327.973,372.529,327.973z"/><path d="M372.529,343.456H202.161c-2.761,0-5,2.238-5,5c0,2.761,2.239,5,5,5h170.368c2.761,0,5-2.239,5-5   C377.529,345.694,375.29,343.456,372.529,343.456z"/><path d="M296.467,396.129h-94.306c-2.761,0-5,2.238-5,5c0,2.761,2.239,5,5,5h94.306c2.762,0,5-2.239,5-5   C301.467,398.367,299.229,396.129,296.467,396.129z"/><path d="M296.467,411.612h-94.306c-2.761,0-5,2.238-5,5c0,2.761,2.239,5,5,5h94.306c2.762,0,5-2.239,5-5   C301.467,413.851,299.229,411.612,296.467,411.612z"/></g></svg>
